<svg xmlns="http://www.w3.org/2000/svg" xmlns:xlink="http://www.w3.org/1999/xlink" viewBox="0 0 1089.69 735.43"><defs><style>.cls-1{mask:url(#mask);}.cls-10,.cls-12,.cls-14,.cls-16,.cls-18,.cls-2,.cls-20,.cls-22,.cls-24,.cls-4,.cls-6,.cls-8{mix-blend-mode:multiply;}.cls-2{fill:url(#linear-gradient);}.cls-3{mask:url(#mask-2);}.cls-4{fill:url(#linear-gradient-2);}.cls-5{mask:url(#mask-3);}.cls-6{fill:url(#linear-gradient-3);}.cls-7{mask:url(#mask-4);}.cls-8{fill:url(#linear-gradient-4);}.cls-9{mask:url(#mask-5);}.cls-10{fill:url(#linear-gradient-5);}.cls-11{mask:url(#mask-6);}.cls-12{fill:url(#linear-gradient-6);}.cls-13{mask:url(#mask-7);}.cls-14{fill:url(#linear-gradient-7);}.cls-15{mask:url(#mask-8);}.cls-16{fill:url(#linear-gradient-8);}.cls-17{mask:url(#mask-9);}.cls-18{fill:url(#linear-gradient-9);}.cls-19{mask:url(#mask-10);}.cls-20{fill:url(#linear-gradient-10);}.cls-21{mask:url(#mask-11);}.cls-22{fill:url(#linear-gradient-11);}.cls-23{mask:url(#mask-12);}.cls-24{fill:url(#linear-gradient-12);}.cls-25{fill:none;}.cls-26{clip-path:url(#clip-path);}.cls-27{mask:url(#mask-13);}.cls-28{fill:#e6e6e6;}.cls-29{mask:url(#mask-14);}.cls-30{mask:url(#mask-15);}.cls-31{mask:url(#mask-16);}.cls-32{mask:url(#mask-17);}.cls-33{mask:url(#mask-18);}.cls-34{mask:url(#mask-19);}.cls-35{mask:url(#mask-20);}.cls-36{mask:url(#mask-21);}.cls-37{mask:url(#mask-22);}.cls-38{mask:url(#mask-23);}.cls-39{mask:url(#mask-24);}.cls-40{filter:url(#luminosity-noclip-24);}.cls-41{filter:url(#luminosity-noclip-23);}.cls-42{filter:url(#luminosity-noclip-22);}.cls-43{filter:url(#luminosity-noclip-21);}.cls-44{filter:url(#luminosity-noclip-20);}.cls-45{filter:url(#luminosity-noclip-19);}.cls-46{filter:url(#luminosity-noclip-18);}.cls-47{filter:url(#luminosity-noclip-17);}.cls-48{filter:url(#luminosity-noclip-16);}.cls-49{filter:url(#luminosity-noclip-15);}.cls-50{filter:url(#luminosity-noclip-14);}.cls-51{filter:url(#luminosity-noclip-13);}.cls-52{filter:url(#luminosity-noclip-12);}.cls-53{filter:url(#luminosity-noclip-11);}.cls-54{filter:url(#luminosity-noclip-10);}.cls-55{filter:url(#luminosity-noclip-9);}.cls-56{filter:url(#luminosity-noclip-8);}.cls-57{filter:url(#luminosity-noclip-7);}.cls-58{filter:url(#luminosity-noclip-6);}.cls-59{filter:url(#luminosity-noclip-5);}.cls-60{filter:url(#luminosity-noclip-4);}.cls-61{filter:url(#luminosity-noclip-3);}.cls-62{filter:url(#luminosity-noclip-2);}.cls-63{filter:url(#luminosity-noclip);}</style><filter id="luminosity-noclip" x="623.81" y="-11713" width="1089.69" height="32766" filterUnits="userSpaceOnUse" color-interpolation-filters="sRGB"><feFlood flood-color="#fff" result="bg"/><feBlend in="SourceGraphic" in2="bg"/></filter><mask id="mask" x="623.81" y="-11713" width="1089.69" height="32766" maskUnits="userSpaceOnUse"><g class="cls-63"/></mask><linearGradient id="linear-gradient" x1="-2647.58" y1="11423.51" x2="-1557.96" y2="11423.51" gradientTransform="matrix(1, 0, 0, -1, 3266.92, 11824.48)" gradientUnits="userSpaceOnUse"><stop offset="0" stop-color="#fff"/><stop offset="0.04" stop-color="#b4b4b4"/><stop offset="0.15"/><stop offset="0.17" stop-color="#171717"/><stop offset="0.39" stop-color="#fff"/><stop offset="0.63" stop-color="#e6e6e6"/><stop offset="0.86" stop-color="#1a1a1a"/><stop offset="1"/></linearGradient><filter id="luminosity-noclip-2" x="821.44" y="-11713" width="674.01" height="32766" filterUnits="userSpaceOnUse" color-interpolation-filters="sRGB"><feFlood flood-color="#fff" result="bg"/><feBlend in="SourceGraphic" in2="bg"/></filter><mask id="mask-2" x="821.44" y="-11713" width="674.01" height="32766" maskUnits="userSpaceOnUse"><g class="cls-62"/></mask><linearGradient id="linear-gradient-2" x1="-2449.98" y1="11376.55" x2="-1776" y2="11376.55" xlink:href="#linear-gradient"/><filter id="luminosity-noclip-3" x="860.88" y="-11713" width="591.49" height="32766" filterUnits="userSpaceOnUse" color-interpolation-filters="sRGB"><feFlood flood-color="#fff" result="bg"/><feBlend in="SourceGraphic" in2="bg"/></filter><mask id="mask-3" x="860.88" y="-11713" width="591.49" height="32766" maskUnits="userSpaceOnUse"><g class="cls-61"/></mask><linearGradient id="linear-gradient-3" x1="-2410.56" y1="11367.56" x2="-1819.09" y2="11367.56" xlink:href="#linear-gradient"/><filter id="luminosity-noclip-4" x="900.11" y="-11713" width="509.61" height="32766" filterUnits="userSpaceOnUse" color-interpolation-filters="sRGB"><feFlood flood-color="#fff" result="bg"/><feBlend in="SourceGraphic" in2="bg"/></filter><mask id="mask-4" x="900.11" y="-11713" width="509.61" height="32766" maskUnits="userSpaceOnUse"><g class="cls-60"/></mask><linearGradient id="linear-gradient-4" x1="-2371.33" y1="11354.18" x2="-1861.73" y2="11354.18" xlink:href="#linear-gradient"/><filter id="luminosity-noclip-5" x="938.47" y="-11713" width="429.53" height="32766" filterUnits="userSpaceOnUse" color-interpolation-filters="sRGB"><feFlood flood-color="#fff" result="bg"/><feBlend in="SourceGraphic" in2="bg"/></filter><mask id="mask-5" x="938.47" y="-11713" width="429.53" height="32766" maskUnits="userSpaceOnUse"><g class="cls-59"/></mask><linearGradient id="linear-gradient-5" x1="-2332.98" y1="11341.58" x2="-1903.46" y2="11341.58" xlink:href="#linear-gradient"/><filter id="luminosity-noclip-6" x="970.34" y="-11713" width="357.98" height="32766" filterUnits="userSpaceOnUse" color-interpolation-filters="sRGB"><feFlood flood-color="#fff" result="bg"/><feBlend in="SourceGraphic" in2="bg"/></filter><mask id="mask-6" x="970.34" y="-11713" width="357.98" height="32766" maskUnits="userSpaceOnUse"><g class="cls-58"/></mask><linearGradient id="linear-gradient-6" x1="-2301.09" y1="11331.2" x2="-1943.13" y2="11331.2" xlink:href="#linear-gradient"/><filter id="luminosity-noclip-7" x="663.37" y="-11713" width="1006.39" height="32766" filterUnits="userSpaceOnUse" color-interpolation-filters="sRGB"><feFlood flood-color="#fff" result="bg"/><feBlend in="SourceGraphic" in2="bg"/></filter><mask id="mask-7" x="663.37" y="-11713" width="1006.39" height="32766" maskUnits="userSpaceOnUse"><g class="cls-57"/></mask><linearGradient id="linear-gradient-7" x1="-2608.03" y1="11414.03" x2="-1601.7" y2="11414.03" xlink:href="#linear-gradient"/><filter id="luminosity-noclip-8" x="986.74" y="-11713" width="309.09" height="32766" filterUnits="userSpaceOnUse" color-interpolation-filters="sRGB"><feFlood flood-color="#fff" result="bg"/><feBlend in="SourceGraphic" in2="bg"/></filter><mask id="mask-8" x="986.74" y="-11713" width="309.09" height="32766" maskUnits="userSpaceOnUse"><g class="cls-56"/></mask><linearGradient id="linear-gradient-8" x1="-2284.68" y1="11328.78" x2="-1975.63" y2="11328.78" xlink:href="#linear-gradient"/><filter id="luminosity-noclip-9" x="993.31" y="-11713" width="295.48" height="32766" filterUnits="userSpaceOnUse" color-interpolation-filters="sRGB"><feFlood flood-color="#fff" result="bg"/><feBlend in="SourceGraphic" in2="bg"/></filter><mask id="mask-9" x="993.31" y="-11713" width="295.48" height="32766" maskUnits="userSpaceOnUse"><g class="cls-55"/></mask><linearGradient id="linear-gradient-9" x1="-2278.11" y1="11336.23" x2="-1982.67" y2="11336.23" xlink:href="#linear-gradient"/><filter id="luminosity-noclip-10" x="702.92" y="-11713" width="923.14" height="32766" filterUnits="userSpaceOnUse" color-interpolation-filters="sRGB"><feFlood flood-color="#fff" result="bg"/><feBlend in="SourceGraphic" in2="bg"/></filter><mask id="mask-10" x="702.92" y="-11713" width="923.14" height="32766" maskUnits="userSpaceOnUse"><g class="cls-54"/></mask><linearGradient id="linear-gradient-10" x1="-2568.48" y1="11404.58" x2="-1645.4" y2="11404.58" xlink:href="#linear-gradient"/><filter id="luminosity-noclip-11" x="742.45" y="-11713" width="839.99" height="32766" filterUnits="userSpaceOnUse" color-interpolation-filters="sRGB"><feFlood flood-color="#fff" result="bg"/><feBlend in="SourceGraphic" in2="bg"/></filter><mask id="mask-11" x="742.45" y="-11713" width="839.99" height="32766" maskUnits="userSpaceOnUse"><g class="cls-53"/></mask><linearGradient id="linear-gradient-11" x1="-2528.96" y1="11395.17" x2="-1689.02" y2="11395.17" xlink:href="#linear-gradient"/><filter id="luminosity-noclip-12" x="781.96" y="-11713" width="756.95" height="32766" filterUnits="userSpaceOnUse" color-interpolation-filters="sRGB"><feFlood flood-color="#fff" result="bg"/><feBlend in="SourceGraphic" in2="bg"/></filter><mask id="mask-12" x="781.96" y="-11713" width="756.95" height="32766" maskUnits="userSpaceOnUse"><g class="cls-52"/></mask><linearGradient id="linear-gradient-12" x1="-2489.46" y1="11385.79" x2="-1732.54" y2="11385.79" xlink:href="#linear-gradient"/><clipPath id="clip-path" transform="translate(-623.81 -32.43)"><rect class="cls-25" width="1439" height="871"/></clipPath><filter id="luminosity-noclip-13" x="623.81" y="32.43" width="1089.69" height="735.43" filterUnits="userSpaceOnUse" color-interpolation-filters="sRGB"><feFlood flood-color="#fff" result="bg"/><feBlend in="SourceGraphic" in2="bg"/></filter><mask id="mask-13" x="0" y="0" width="1089.69" height="735.43" maskUnits="userSpaceOnUse"><g class="cls-51"><g transform="translate(-623.81 -32.43)"><g class="cls-1"><path class="cls-2" d="M1219.89,40.89c57.72,8,112.79,21.73,163.68,40.79C1479,117.43,1560.1,172.27,1618,240.28c39.8,46.72,67.65,97.91,82.78,152.15,15.23,54.6,16.77,109.49,4.59,163.15-12.37,54.46-48,100.11-106,135.68-31.28,19.2-68.82,35.25-111.59,47.72-38.2,11.14-79.78,19.22-123.57,24-77,8.44-156.33,5.74-207.16-7-57.85-14.54-84.85-25.35-102.71-32.5-21.43-8.58-31.21-12.49-67-12.6v0c-13,0-27.83,3.63-45,7.89-34.21,8.49-76.79,19-131.6,6.81-126.75-28.28-186.16-49-187-65.28-.81-16.58,8-21.95,21.27-30.08,23-14.05,61.41-37.55,96.3-143.15,10.48-31.72,10.18-75.4,9.85-121.64-.49-69.29-1-147.81,33.47-210.92,39.82-72.83,119.54-112.07,243.73-120q33.11-2.12,65.56-2.09A919.65,919.65,0,0,1,1219.89,40.89Zm-278,675.7c17.2-4.26,32.06-8,45.32-8h.19c36.22.11,46.12,4.08,67.82,12.76,17.81,7.13,44.73,17.9,102.43,32.41,50.59,12.72,129.67,15.4,206.38,7,43.66-4.79,85.11-12.85,123.19-23.95,42.58-12.41,79.94-28.39,111-47.48,57.42-35.25,92.73-80.43,105-134.29,12.11-53.28,10.57-107.81-4.56-162.05-15-53.93-42.74-104.84-82.32-151.31-57.69-67.73-138.45-122.35-233.55-158-50.74-19-105.65-32.68-163.2-40.66-60.72-8.42-125-10.56-191-6.36-123.37,7.85-202.5,46.72-241.93,118.83C752.46,218.16,753,296.38,753.5,365.39c.32,46.43.63,90.29-10,122.36-35.15,106.36-74,130.14-97.25,144.34-13.52,8.27-21,12.82-20.21,28.08.26,5.39,9.85,14.84,54,29.26,30.63,10,73.54,21.1,131.18,34a225.86,225.86,0,0,0,49.31,5.5C892.24,728.91,919,722.28,941.88,716.59Z"/></g></g></g></mask><filter id="luminosity-noclip-14" x="663.37" y="72.82" width="1006.39" height="673.6" filterUnits="userSpaceOnUse" color-interpolation-filters="sRGB"><feFlood flood-color="#fff" result="bg"/><feBlend in="SourceGraphic" in2="bg"/></filter><mask id="mask-14" x="39.56" y="40.39" width="1006.39" height="673.6" maskUnits="userSpaceOnUse"><g class="cls-50"><g transform="translate(-623.81 -32.43)"><g class="cls-13"><path class="cls-14" d="M1225.54,81.34c52.24,7.63,102,20.44,148,38.05,86.18,33.05,159.21,83.35,211.19,145.47,36,43,61,90.05,74.29,139.86,13.41,50.12,14.28,100.43,2.6,149.54C1649.87,603.05,1617.36,644,1565,676c-29,17.72-64,32.52-103.89,44-35.57,10.22-74.36,17.63-115.3,22-71.59,7.68-145.65,5.25-193.28-6.33-46.5-11.3-71.73-19.32-90.16-25.18-27.42-8.72-36.66-11.67-74-11.58h0c-11.76,0-24.79,2.8-39.86,6-31.19,6.68-70,15-119.74,2.76-47.63-11.51-88-23.54-116.86-34.78-32-12.5-48.37-23.46-48.54-32.55-.58-16.1,8.22-21.61,21.54-29.94,22-13.79,58.91-36.87,94.09-131.72,11.44-29.62,12.5-70.23,13.63-113.23,1.61-61.72,3.44-131.68,36.38-187.18,37.92-63.87,110.88-97.89,223-104q26.73-1.51,53-1.5A838.87,838.87,0,0,1,1225.54,81.34ZM948.1,702.89c15.19-3.25,28.31-6.06,40.3-6.07,37.6-.07,47.69,3.12,74.59,11.68,18.4,5.84,43.6,13.85,90,25.13,47.42,11.54,121.2,13.94,192.56,6.29,111-11.91,180-42.31,218.33-65.72,51.89-31.68,84.08-72.2,95.67-120.43C1671.18,505,1670.31,455,1657,405.26c-13.24-49.52-38.09-96.3-73.87-139.06-51.76-61.85-124.49-111.94-210.34-144.86C1327,103.78,1277.33,91,1225.24,83.4c-55-8-113.17-10.38-173-7-111.42,6-183.83,39.72-221.36,103-32.67,55-34.49,124.7-36.1,186.17-1.13,43.18-2.2,84-13.77,113.91C745.55,574.94,708.3,598.25,686,612.18c-13.15,8.24-21.09,13.21-20.56,28.12.3,16,63.07,41,163.82,65.37a210.88,210.88,0,0,0,50.62,6.2C906.16,711.88,928.63,707.06,948.1,702.89Z"/></g></g></g></mask><filter id="luminosity-noclip-15" x="702.92" y="113.14" width="923.14" height="611.86" filterUnits="userSpaceOnUse" color-interpolation-filters="sRGB"><feFlood flood-color="#fff" result="bg"/><feBlend in="SourceGraphic" in2="bg"/></filter><mask id="mask-15" x="79.11" y="80.71" width="923.14" height="611.86" maskUnits="userSpaceOnUse"><g class="cls-49"><g transform="translate(-623.81 -32.43)"><g class="cls-19"><path class="cls-20" d="M1363.48,157.09c76.9,30.33,141.89,76.08,187.94,132.31,32.16,39.27,54.3,82.2,65.81,127.59,11.57,45.65,11.77,91.39.59,136-10.16,39.57-35.77,73.45-76.12,100.69-34.64,23.39-79.42,41.54-133.11,54-45.36,10.49-95.81,16.48-145.91,17.3-44.51.73-85.26-2.66-114.73-9.54-28.83-6.72-49-11.82-65.27-15.91-43.12-10.87-50.89-12.84-93.26-12.51h0c-10.33.06-21.41,2-34.24,4.2-28.29,4.91-63.5,11-108.39-1.32-69.46-18.42-144.1-48-143.86-69.39-.32-15.66,8.55-21.33,22-29.92C746,577,781.29,554.43,816.62,470.36c12.48-27.46,15-64.86,17.66-104.46,3.65-54.2,7.78-115.63,39.08-163.59,35.92-55.05,102.1-83.9,202.32-88.2q20.71-1,41-1C1206.6,113.17,1289.48,127.91,1363.48,157.09ZM954.85,689.22c12.91-2.24,24.06-4.17,34.56-4.23,42.61-.32,50.42,1.65,93.74,12.57,16.23,4.09,36.43,9.19,65.24,15.9,29.32,6.85,69.9,10.21,114.26,9.49,50-.82,100.27-6.79,145.5-17.25,53.45-12.37,98-30.43,132.46-53.68,39.94-27,65.28-60.47,75.32-99.56,11.1-44.24,10.91-89.66-.59-135-11.44-45.11-33.45-87.78-65.43-126.83-45.84-56-110.55-101.53-187.15-131.73-84.83-33.46-181.38-47.87-287-42.85-99.55,4.27-165.23,32.83-200.78,87.31-31,47.54-35.14,108.7-38.77,162.66-2.67,39.78-5.2,77.35-17.81,105.11-35.55,84.61-71.18,107.4-92.46,121-13.33,8.53-21.37,13.67-21.07,28.27-.2,17.19,59.7,45.58,142.42,67.52a196.84,196.84,0,0,0,52.77,7.17C920.84,695.12,939,692,954.85,689.22Z"/></g></g></g></mask><filter id="luminosity-noclip-16" x="742.45" y="153.4" width="839.99" height="550.15" filterUnits="userSpaceOnUse" color-interpolation-filters="sRGB"><feFlood flood-color="#fff" result="bg"/><feBlend in="SourceGraphic" in2="bg"/></filter><mask id="mask-16" x="118.64" y="120.97" width="839.99" height="550.15" maskUnits="userSpaceOnUse"><g class="cls-48"><g transform="translate(-623.81 -32.43)"><g class="cls-21"><path class="cls-22" d="M1353.43,194.76c67.64,27.6,124.6,68.8,164.72,119.13,28.35,35.56,47.63,74.37,57.33,115.35,9.74,41.19,9.25,82.36-1.45,122.38-9.77,35.3-33.57,65.42-70.73,89.52-31.85,20.66-72.92,36.63-122.08,47.46-41.37,9.12-87.46,14.27-133.3,14.89-39.84.53-78-2.54-104.54-8.44-94.64-20.91-98.71-20.86-148.6-20.13l-4.34.06h0c-8.57.09-17.83,1.25-27.64,2.47-25.63,3.19-57.53,7.17-98-5.5C795.39,651.43,741.66,620,742.46,600.51c-.05-15.29,8.48-20.86,22.63-30.09,21.44-14,53.84-35.13,89.14-108.41,13.58-25.22,17.65-59.22,22-95.22,5.86-49,11.92-99.67,41.49-140.21,33.82-46.36,93.22-70.13,181.61-72.67q14.22-.53,28.18-.51C1210.26,153.43,1286.16,167.31,1353.43,194.76ZM962.58,675.65c9.86-1.23,19.17-2.39,27.84-2.48l4.33-.07c50.08-.72,54.17-.78,149,20.18,26.46,5.87,64.42,8.93,104.13,8.4,45.71-.62,91.68-5.75,132.93-14.85,48.94-10.79,89.82-26.67,121.49-47.21,36.77-23.85,60.31-53.62,70-88.48,10.62-39.72,11.1-80.59,1.43-121.49-9.63-40.71-28.8-79.28-57-114.63-39.93-50.09-96.64-91.09-164-118.58-74.6-30.44-159.85-44.14-253.4-40.72-87.8,2.53-146.74,26.06-180.2,71.93C889.85,267.81,883.82,318.24,878,367c-4.33,36.18-8.41,70.35-22.15,95.83-35.49,73.71-69.46,95.87-89.76,109.11-13.63,8.89-21.86,14.26-21.81,28.6-.75,18.46,53.54,49.71,121,69.67a185.63,185.63,0,0,0,56.39,8.63C936.9,678.85,950.44,677.16,962.58,675.65Z"/></g></g></g></mask><filter id="luminosity-noclip-17" x="781.96" y="193.54" width="756.95" height="488.64" filterUnits="userSpaceOnUse" color-interpolation-filters="sRGB"><feFlood flood-color="#fff" result="bg"/><feBlend in="SourceGraphic" in2="bg"/></filter><mask id="mask-17" x="158.15" y="161.11" width="756.95" height="488.64" maskUnits="userSpaceOnUse"><g class="cls-47"><g transform="translate(-623.81 -32.43)"><g class="cls-23"><path class="cls-24" d="M1343.39,232.39c58.37,24.87,107.31,61.49,141.53,105.92,24.54,31.86,41,66.56,48.83,103.14a221.09,221.09,0,0,1-3.51,108.85c-9.39,31-31.37,57.4-65.33,78.35-29.06,17.93-66.43,31.71-111.06,41-82.46,17.09-169.28,14.65-215,5.14-71.76-14.81-91.19-14-123.4-12.57-7,.3-14.87.64-23.94.84h0c-6,.1-12.23.53-18.8,1-24.74,1.7-52.79,3.63-89.91-9.93-28-9.46-54.08-22.63-73.31-37.1-18.11-13.62-28.11-26.9-27.45-36.39.23-15,9-20.84,23.65-30.52,20.39-13.52,51.21-33.95,86.19-96.4,14.79-22.86,20.53-53.23,26.59-85.38,15.29-81,32.62-172.74,204.47-174.57q7.72-.18,15.36-.17C1213.93,193.57,1282.88,206.62,1343.39,232.39ZM972.55,662.32c6.59-.45,12.81-.88,18.88-1h0c9.05-.2,16.94-.54,23.9-.84,32.33-1.41,51.85-2.25,123.82,12.61,45.6,9.47,132.13,11.9,214.36-5.15,122.91-25.47,163.07-78.31,175.12-118.14a219.38,219.38,0,0,0,3.48-108c-7.81-36.34-24.14-70.82-48.52-102.47-34-44.21-82.75-80.65-140.86-105.4-64.36-27.42-138.32-40.39-219.81-38.55-76.18.81-128.4,19.41-159.64,56.87-27.46,32.92-35.46,75.32-43.2,116.33-6.11,32.32-11.87,62.84-26.81,85.94-35.15,62.76-66.17,83.32-86.71,96.93-14.14,9.38-22.67,15-22.89,29.2-1.23,17.66,39.38,51.5,99.64,71.83a175.86,175.86,0,0,0,62.38,11C955.19,663.52,964.06,662.91,972.55,662.32Z"/></g></g></g></mask><filter id="luminosity-noclip-18" x="821.44" y="233.47" width="674.01" height="427.25" filterUnits="userSpaceOnUse" color-interpolation-filters="sRGB"><feFlood flood-color="#fff" result="bg"/><feBlend in="SourceGraphic" in2="bg"/></filter><mask id="mask-18" x="197.63" y="201.04" width="674.01" height="427.25" maskUnits="userSpaceOnUse"><g class="cls-46"><g transform="translate(-623.81 -32.43)"><g class="cls-3"><path class="cls-4" d="M1146.5,233.51h2.44c68.66,0,130.7,12.29,184.41,36.46,49.12,22.11,90.07,54.15,118.4,92.66,41.61,56.55,54.26,124.47,34.71,186.36-21.12,62.78-98.66,89.92-160,101.64-72.77,13.9-150.66,11.73-192.25,3.83-57.08-10.75-82.36-8.31-109.12-5.73-10,1-20.3,2-32.63,2.34l-2.91.07c-25.57.66-52,1.34-88.84-14.94-47.72-18.93-81.18-55.52-79.21-75.53.55-14.85,9.84-21.07,25.24-31.37,19.3-12.92,48.46-32.43,82.69-84C945.52,425,953,398.56,961,370.6c9.56-33.55,19.45-68.24,45.23-94.4,28.35-28.76,72.46-42.76,134.73-42.73C1142.79,233.47,1144.64,233.48,1146.5,233.51Zm-157,416.08,2.9-.08c12.28-.37,22.58-1.37,32.54-2.33,26.87-2.59,52.25-5,109.55,5.75,41.45,7.87,119.1,10,191.67-3.83,60.92-11.64,137.92-38.54,158.8-100.59a193.09,193.09,0,0,0,5.57-94.6c-6-32-19.46-62.38-40-90.37-28.18-38.3-68.91-70.17-117.8-92.17-53.51-24.08-115.32-36.3-183.79-36.32h-2.43c-64.78-.85-110.28,12.95-139.15,42.24C981.84,303.17,972,337.66,962.5,371c-8,28.1-15.58,54.65-31.8,75.2C896.33,498,867,517.59,847.62,530.57c-15,10-24,16.08-24.55,30.19-1.7,17.27,27.24,53.76,78.26,74,29.24,12.92,51.91,15.07,72.82,15.08C979.36,649.85,984.47,649.72,989.53,649.59Z"/></g></g></g></mask><filter id="luminosity-noclip-19" x="860.88" y="272.9" width="591.49" height="366.36" filterUnits="userSpaceOnUse" color-interpolation-filters="sRGB"><feFlood flood-color="#fff" result="bg"/><feBlend in="SourceGraphic" in2="bg"/></filter><mask id="mask-19" x="237.06" y="240.47" width="591.49" height="366.36" maskUnits="userSpaceOnUse"><g class="cls-45"><g transform="translate(-623.81 -32.43)"><g class="cls-5"><path class="cls-6" d="M1170.1,273.3c57.53,1.28,109.08,12.76,153.22,34.14,39.91,19.32,72.89,46.75,95.38,79.33,34,49.25,42.73,107.89,24,160.9-20.14,52.58-89.19,74.67-143.57,84-62.74,10.71-131.81,8.82-169.44,2.53-46.6-7.69-73.28-3.46-99.09.63-12.21,1.94-23.74,3.77-37.07,4.32h0c-25.1.85-47.48-5.37-74.81-20.79-38.77-19-60-58.65-57.63-77.57.91-14.94,11.06-21.72,27.87-32.95,18.08-12.06,45.39-30.3,78.14-70.8,17.38-17.63,27.26-40.64,36.81-62.9,11.18-26,22.74-53,46.43-72.3s57.66-28.91,103.2-28.89C1158.87,272.9,1164.41,273,1170.1,273.3ZM993.44,637.69c13.25-.55,24.74-2.37,36.91-4.3,25.92-4.12,52.72-8.37,99.55-.64,37.5,6.28,106.38,8.16,169-2.52,54-9.22,122.58-31.11,142.47-83.05,18.61-52.56,9.93-110.73-23.81-159.61-22.35-32.38-55.14-59.65-94.82-78.86-44-21.29-95.31-32.72-152.65-34-53.67-2.5-92.55,6.71-118.86,28.17-23.42,19.1-34.91,45.87-46,71.77-9.61,22.37-19.54,45.51-37.06,63.27-32.84,40.62-60.26,58.93-78.4,71.05-17,11.36-26.38,17.61-27.26,31.9-2.35,18.56,18.63,57.46,56.89,76.19,25.48,14.38,46.59,20.69,69.64,20.7C990.46,637.76,992,637.74,993.44,637.69Z"/></g></g></g></mask><filter id="luminosity-noclip-20" x="900.11" y="311.65" width="509.61" height="315.54" filterUnits="userSpaceOnUse" color-interpolation-filters="sRGB"><feFlood flood-color="#fff" result="bg"/><feBlend in="SourceGraphic" in2="bg"/></filter><mask id="mask-20" x="276.3" y="279.22" width="509.61" height="315.54" maskUnits="userSpaceOnUse"><g class="cls-44"><g transform="translate(-623.81 -32.43)"><g class="cls-7"><path class="cls-8" d="M1193.72,313.1c45.4,2.76,85.65,13.41,119.63,31.65,30.72,16.49,55.8,39.28,72.5,65.91,26.4,42.06,31.15,91.52,13,135.7-8.23,18.22-24.76,33.3-49.15,44.82-20.64,9.74-46.88,17-78,21.45-59.79,8.62-120.31,4.82-146.63,1.21-38-5.1-66,1.14-90.67,6.64-13.67,3-26.59,5.93-39.91,6.66h0c-21.12,1-38-11-57.87-26.73-12.44-8.13-23-22.16-29.67-39.52-5.54-14.36-8-29.73-6.39-40.07,1.38-15.47,12.52-22.73,32.72-35.9,17.52-11.42,41.52-27.06,71.38-56.26,18.5-14.49,30.39-32.19,41.88-49.32,23.31-34.72,45.46-67.72,118.83-67.69C1174.09,311.65,1183.5,312.12,1193.72,313.1ZM994.45,625.86c13.22-.72,26.08-3.59,39.7-6.62,24.78-5.53,52.87-11.79,91.12-6.66,26.26,3.6,86.63,7.39,146.28-1.22,31-4.46,57.1-11.65,77.63-21.34,24.1-11.38,40.43-26.25,48.52-44.16,18-43.78,13.25-92.81-12.93-134.52-16.59-26.44-41.5-49.08-72-65.47-33.81-18.15-73.89-28.74-119.12-31.5-43.7-4.2-75.2.51-99.14,14.83-21.24,12.71-33.68,31.24-46.85,50.85-11.55,17.21-23.49,35-42.1,49.57C975.63,458.86,951.58,474.54,934,486c-19.87,12.95-30.82,20.09-32.15,35-2.7,17.49,7.11,59.83,35.53,78.4,19,15,35.13,26.54,54.74,26.54C992.9,625.92,993.67,625.9,994.45,625.86Z"/></g></g></g></mask><filter id="luminosity-noclip-21" x="938.47" y="348.83" width="429.53" height="266.39" filterUnits="userSpaceOnUse" color-interpolation-filters="sRGB"><feFlood flood-color="#fff" result="bg"/><feBlend in="SourceGraphic" in2="bg"/></filter><mask id="mask-21" x="314.65" y="316.41" width="429.53" height="266.39" maskUnits="userSpaceOnUse"><g class="cls-43"><g transform="translate(-623.81 -32.43)"><g class="cls-9"><path class="cls-10" d="M1217.34,352.9c33.25,4.13,62.24,13.84,86.17,28.86,22,13.78,38.77,31.38,50,52.32,18.78,35.09,19.36,75.53,1.59,111-35.9,63.9-201.67,51.6-234.54,48.48-30.36-2.78-58.15,5.21-82.67,12.26-15.16,4.35-29.47,8.46-42.32,9.38h0c-16.52,1-27.42-14-38-28.58l-3-4.16c-17.2-17.64-17.88-62.55-14.42-81.54,2.07-17,16.79-25.94,43.5-42.1,15.57-9.42,34.94-21.15,58.68-38.45,18.32-10.48,31.58-21.86,44.4-32.87,24.57-21.08,45-38.67,89.37-38.65A238.93,238.93,0,0,1,1217.34,352.9ZM995.46,614c12.73-.91,27-5,42.08-9.34,24.62-7.08,52.52-15.09,83.1-12.3,20,1.9,72,5.7,123.59.1,58.57-6.37,95.53-22.51,109.83-48,17.59-35.09,17-75.15-1.58-109.91-11.11-20.76-27.79-38.22-49.58-51.89-23.78-14.93-52.62-24.58-85.73-28.7-74.39-13.17-98.8,7.79-129.71,34.32-12.87,11-26.17,22.45-44.53,32.95-23.72,17.3-43.12,29-58.71,38.48-26.41,16-41,24.78-43,41.29-3.43,18.84-2.81,63.27,14.13,80.6l.06.06,3.06,4.2c10,13.85,20.38,28.15,35.46,28.15C994.47,614.08,995,614.07,995.46,614Z"/></g></g></g></mask><filter id="luminosity-noclip-22" x="970.34" y="381.55" width="357.98" height="221.72" filterUnits="userSpaceOnUse" color-interpolation-filters="sRGB"><feFlood flood-color="#fff" result="bg"/><feBlend in="SourceGraphic" in2="bg"/></filter><mask id="mask-22" x="346.53" y="349.12" width="357.98" height="221.72" maskUnits="userSpaceOnUse"><g class="cls-42"><g transform="translate(-623.81 -32.43)"><g class="cls-11"><path class="cls-12" d="M1241,392.71c40.49,10,69.4,32.74,81.41,64,10.83,28.14,6.68,60.7-11.13,87.11-12.37,16.08-39.83,26.15-81.62,29.93-34.92,3.16-72.79,1.39-97.85.21-6.12-.28-11.4-.53-15.82-.67-23.2-.65-50.31,8.87-74.23,17.27-17,6-33,11.58-45.18,12.7h0c-14.63,1.19-20.56-20.1-24.07-38.82-6.59-17.45,3.77-67.12,7.17-83.42,3.52-22,27.74-33.73,80.79-59.46,6.1-2.95,12.57-6.09,19.48-9.47,9.63-3.64,18.18-7.08,26.44-10.39,29.08-11.68,50.11-20.12,76.31-20.11C1199,381.55,1217.39,384.85,1241,392.71ZM996.47,602.21c12.07-1.11,28-6.72,44.94-12.65,24-8.43,51.19-18,74.59-17.33,4.43.14,9.71.39,15.83.68,25,1.17,62.86,2.94,97.72-.21,41.5-3.75,68.72-13.69,80.89-29.52,17.61-26.11,21.72-58.32,11-86.16-11.89-30.89-40.55-53.38-80.75-63.34-61.07-20.35-87-10-134,8.91-8.27,3.32-16.82,6.75-26.42,10.38q-10.3,5-19.44,9.46c-52.73,25.56-76.79,37.23-80.24,58.73-3.39,16.27-13.72,65.78-7.2,82.93l0,.09c3.34,17.82,8.84,38.07,21.92,38.08C995.75,602.26,996.11,602.24,996.47,602.21Z"/></g></g></g></mask><filter id="luminosity-noclip-23" x="986.74" y="398.35" width="309.09" height="192.95" filterUnits="userSpaceOnUse" color-interpolation-filters="sRGB"><feFlood flood-color="#fff" result="bg"/><feBlend in="SourceGraphic" in2="bg"/></filter><mask id="mask-23" x="362.93" y="365.92" width="309.09" height="192.95" maskUnits="userSpaceOnUse"><g class="cls-41"><g transform="translate(-623.81 -32.43)"><g class="cls-15"><path class="cls-16" d="M1202.56,402c21.38,4.82,41.13,14.52,62.11,30.52,18.42,10.92,29.1,26.67,30.89,45.54,2.13,22.45-8.65,47.12-28.15,64.39-21.75,16.74-76.79,13.69-117,11.47-16.19-.89-30.17-1.67-39-1-16.24,1.23-40.47,11.29-63.89,21-19.72,8.19-38.34,15.92-49.95,17.31h0a6.93,6.93,0,0,1-6.55-3c-2.84-3.66-4.36-10.54-4.29-19.37.07-8.07,1.5-16.52,3.81-22.56,1.9-7.1,6.83-20.81,12-35.33,6.59-18.34,14.06-39.12,16.61-50,4.86-23.62,34.26-40.75,98.34-57.29,18.13-3.62,34.68-5.43,49.92-5.42A160.23,160.23,0,0,1,1202.56,402ZM997.48,590.39c11.49-1.38,30-9.09,49.71-17.25,23.49-9.76,47.78-19.84,64.17-21.08,8.9-.64,22.9.13,39.12,1,40,2.21,94.9,5.25,116.37-11.27,19.28-17.07,30-41.46,27.84-63.64-1.76-18.58-12.3-34.09-30.51-44.9-20.91-15.94-40.56-25.6-61.81-30.38-24-5.42-51.73-4.85-84.64,1.72-63.68,16.44-92.89,33.37-97.68,56.63-2.56,10.9-10,31.7-16.64,50.06-5.21,14.5-10.13,28.2-12,35.31-4.69,12.27-5.45,33.66.34,41.13a6.19,6.19,0,0,0,5,2.68C997,590.43,997.22,590.41,997.48,590.39Z"/></g></g></g></mask><filter id="luminosity-noclip-24" x="993.31" y="395.41" width="295.48" height="183.93" filterUnits="userSpaceOnUse" color-interpolation-filters="sRGB"><feFlood flood-color="#fff" result="bg"/><feBlend in="SourceGraphic" in2="bg"/></filter><mask id="mask-24" x="369.5" y="362.99" width="295.48" height="183.93" maskUnits="userSpaceOnUse"><g class="cls-40"><g transform="translate(-623.81 -32.43)"><g class="cls-17"><path class="cls-18" d="M1246.76,420.1c23.57,15.12,39.13,34.75,41.64,52.51,2.15,15.18-4.84,31.16-19.68,45-12.69,11.84-30,20.88-45.23,23.58-14.53,2.59-38.74-1.11-62.14-4.68-22.72-3.47-44.18-6.74-54.46-3.9-9.07,2.51-27.15,11.25-46.29,20.52-24.69,11.94-50.22,24.29-62,26.16a3.63,3.63,0,0,1-4-2.27c-2-3.94-1.71-12.8.84-22.58,2.82-10.82,7.64-20.3,13.21-26,15-15.38,44.9-67.57,50-87.26,3.14-12,11.36-22,24.44-29.51,16.64-9.62,40.86-15,71.95-16.13,1.92-.06,3.82-.1,5.73-.1C1191.53,395.43,1221.83,404.1,1246.76,420.1ZM998.49,578.56c11.66-1.85,37.14-14.18,61.78-26.1,19.18-9.28,37.29-18,46.42-20.56,10.44-2.88,32,.4,54.77,3.88,23.35,3.56,47.49,7.25,61.9,4.68,15.07-2.68,32.26-11.64,44.86-23.39,14.65-13.67,21.56-29.43,19.45-44.36-2.44-17.28-18.27-37.21-41.31-52-26.35-16.91-58.75-25.6-91.21-24.47-31,1.08-55.07,6.48-71.61,16-12.9,7.45-21,17.23-24.09,29.05-5.17,19.77-35.21,72.16-50.23,87.59-12.26,12.61-17.88,40.13-13.93,47.76A3,3,0,0,0,998,578.6,3.23,3.23,0,0,0,998.49,578.56Z"/></g></g></g></mask></defs><title>Asset 7</title><g id="Layer_2" data-name="Layer 2"><g id="Layer_1-2" data-name="Layer 1"><g class="cls-26"><g class="cls-27"><path class="cls-28" d="M1219.89,40.89c57.72,8,112.79,21.73,163.68,40.79C1479,117.43,1560.1,172.27,1618,240.28c39.8,46.72,67.65,97.91,82.78,152.15,15.23,54.6,16.77,109.49,4.59,163.15-12.37,54.46-48,100.11-106,135.68-31.28,19.2-68.82,35.25-111.59,47.72-38.2,11.14-79.78,19.22-123.57,24-77,8.44-156.33,5.74-207.16-7-57.85-14.54-84.85-25.35-102.71-32.5-21.43-8.58-31.21-12.49-67-12.6v0c-13,0-27.83,3.63-45,7.89-34.21,8.49-76.79,19-131.6,6.81-126.75-28.28-186.16-49-187-65.28-.81-16.58,8-21.95,21.27-30.08,23-14.05,61.41-37.55,96.3-143.15,10.48-31.72,10.18-75.4,9.85-121.64-.49-69.29-1-147.81,33.47-210.92,39.82-72.83,119.54-112.07,243.73-120q33.11-2.12,65.56-2.09A919.65,919.65,0,0,1,1219.89,40.89Zm-278,675.7c17.2-4.26,32.06-8,45.32-8h.19c36.22.11,46.12,4.08,67.82,12.76,17.81,7.13,44.73,17.9,102.43,32.41,50.59,12.72,129.67,15.4,206.38,7,43.66-4.79,85.11-12.85,123.19-23.95,42.58-12.41,79.94-28.39,111-47.48,57.42-35.25,92.73-80.43,105-134.29,12.11-53.28,10.57-107.81-4.56-162.05-15-53.93-42.74-104.84-82.32-151.31-57.69-67.73-138.45-122.35-233.55-158-50.74-19-105.65-32.68-163.2-40.66-60.72-8.42-125-10.56-191-6.36-123.37,7.85-202.5,46.72-241.93,118.83C752.46,218.16,753,296.38,753.5,365.39c.32,46.43.63,90.29-10,122.36-35.15,106.36-74,130.14-97.25,144.34-13.52,8.27-21,12.82-20.21,28.08.26,5.39,9.85,14.84,54,29.26,30.63,10,73.54,21.1,131.18,34a225.86,225.86,0,0,0,49.31,5.5C892.24,728.91,919,722.28,941.88,716.59Z" transform="translate(-623.81 -32.43)"/></g><g class="cls-29"><path class="cls-28" d="M1225.54,81.34c52.24,7.63,102,20.44,148,38.05,86.18,33.05,159.21,83.35,211.19,145.47,36,43,61,90.05,74.29,139.86,13.41,50.12,14.28,100.43,2.6,149.54C1649.87,603.05,1617.36,644,1565,676c-29,17.72-64,32.52-103.89,44-35.57,10.22-74.36,17.63-115.3,22-71.59,7.68-145.65,5.25-193.28-6.33-46.5-11.3-71.73-19.32-90.16-25.18-27.42-8.72-36.66-11.67-74-11.58h0c-11.76,0-24.79,2.8-39.86,6-31.19,6.68-70,15-119.74,2.76-47.63-11.51-88-23.54-116.86-34.78-32-12.5-48.37-23.46-48.54-32.55-.58-16.1,8.22-21.61,21.54-29.94,22-13.79,58.91-36.87,94.09-131.72,11.44-29.62,12.5-70.23,13.63-113.23,1.61-61.72,3.44-131.68,36.38-187.18,37.92-63.87,110.88-97.89,223-104q26.73-1.51,53-1.5A838.87,838.87,0,0,1,1225.54,81.34ZM948.1,702.89c15.19-3.25,28.31-6.06,40.3-6.07,37.6-.07,47.69,3.12,74.59,11.68,18.4,5.84,43.6,13.85,90,25.13,47.42,11.54,121.2,13.94,192.56,6.29,111-11.91,180-42.31,218.33-65.72,51.89-31.68,84.08-72.2,95.67-120.43C1671.18,505,1670.31,455,1657,405.26c-13.24-49.52-38.09-96.3-73.87-139.06-51.76-61.85-124.49-111.94-210.34-144.86C1327,103.78,1277.33,91,1225.24,83.4c-55-8-113.17-10.38-173-7-111.42,6-183.83,39.72-221.36,103-32.67,55-34.49,124.7-36.1,186.17-1.13,43.18-2.2,84-13.77,113.91C745.55,574.94,708.3,598.25,686,612.18c-13.15,8.24-21.09,13.21-20.56,28.12.3,16,63.07,41,163.82,65.37a210.88,210.88,0,0,0,50.62,6.2C906.16,711.88,928.63,707.06,948.1,702.89Z" transform="translate(-623.81 -32.43)"/></g><g class="cls-30"><path class="cls-28" d="M1363.48,157.09c76.9,30.33,141.89,76.08,187.94,132.31,32.16,39.27,54.3,82.2,65.81,127.59,11.57,45.65,11.77,91.39.59,136-10.16,39.57-35.77,73.45-76.12,100.69-34.64,23.39-79.42,41.54-133.11,54-45.36,10.49-95.81,16.48-145.91,17.3-44.51.73-85.26-2.66-114.73-9.54-28.83-6.72-49-11.82-65.27-15.91-43.12-10.87-50.89-12.84-93.26-12.51h0c-10.33.06-21.41,2-34.24,4.2-28.29,4.91-63.5,11-108.39-1.32-69.46-18.42-144.1-48-143.86-69.39-.32-15.66,8.55-21.33,22-29.92C746,577,781.29,554.43,816.62,470.36c12.48-27.46,15-64.86,17.66-104.46,3.65-54.2,7.78-115.63,39.08-163.59,35.92-55.05,102.1-83.9,202.32-88.2q20.71-1,41-1C1206.6,113.17,1289.48,127.91,1363.48,157.09ZM954.85,689.22c12.91-2.24,24.06-4.17,34.56-4.23,42.61-.32,50.42,1.65,93.74,12.57,16.23,4.09,36.43,9.19,65.24,15.9,29.32,6.85,69.9,10.21,114.26,9.49,50-.82,100.27-6.79,145.5-17.25,53.45-12.37,98-30.43,132.46-53.68,39.94-27,65.28-60.47,75.32-99.56,11.1-44.24,10.91-89.66-.59-135-11.44-45.11-33.45-87.78-65.43-126.83-45.84-56-110.55-101.53-187.15-131.73-84.83-33.46-181.38-47.87-287-42.85-99.55,4.27-165.23,32.83-200.78,87.31-31,47.54-35.14,108.7-38.77,162.66-2.67,39.78-5.2,77.35-17.81,105.11-35.55,84.61-71.18,107.4-92.46,121-13.33,8.53-21.37,13.67-21.07,28.27-.2,17.19,59.7,45.58,142.42,67.52a196.84,196.84,0,0,0,52.77,7.17C920.84,695.12,939,692,954.85,689.22Z" transform="translate(-623.81 -32.43)"/></g><g class="cls-31"><path class="cls-28" d="M1353.43,194.76c67.64,27.6,124.6,68.8,164.72,119.13,28.35,35.56,47.63,74.37,57.33,115.35,9.74,41.19,9.25,82.36-1.45,122.38-9.77,35.3-33.57,65.42-70.73,89.52-31.85,20.66-72.92,36.63-122.08,47.46-41.37,9.12-87.46,14.27-133.3,14.89-39.84.53-78-2.54-104.54-8.44-94.64-20.91-98.71-20.86-148.6-20.13l-4.34.06h0c-8.57.09-17.83,1.25-27.64,2.47-25.63,3.19-57.53,7.17-98-5.5C795.39,651.43,741.66,620,742.46,600.51c-.05-15.29,8.48-20.86,22.63-30.09,21.44-14,53.84-35.13,89.14-108.41,13.58-25.22,17.65-59.22,22-95.22,5.86-49,11.92-99.67,41.49-140.21,33.82-46.36,93.22-70.13,181.61-72.67q14.22-.53,28.18-.51C1210.26,153.43,1286.16,167.31,1353.43,194.76ZM962.58,675.65c9.86-1.23,19.17-2.39,27.84-2.48l4.33-.07c50.08-.72,54.17-.78,149,20.18,26.46,5.87,64.42,8.93,104.13,8.4,45.71-.62,91.68-5.75,132.93-14.85,48.94-10.79,89.82-26.67,121.49-47.21,36.77-23.85,60.31-53.62,70-88.48,10.62-39.72,11.1-80.59,1.43-121.49-9.63-40.71-28.8-79.28-57-114.63-39.93-50.09-96.64-91.09-164-118.58-74.6-30.44-159.85-44.14-253.4-40.72-87.8,2.53-146.74,26.06-180.2,71.93C889.85,267.81,883.82,318.24,878,367c-4.33,36.18-8.41,70.35-22.15,95.83-35.49,73.71-69.46,95.87-89.76,109.11-13.63,8.89-21.86,14.26-21.81,28.6-.75,18.46,53.54,49.71,121,69.67a185.63,185.63,0,0,0,56.39,8.63C936.9,678.85,950.44,677.16,962.58,675.65Z" transform="translate(-623.81 -32.43)"/></g><g class="cls-32"><path class="cls-28" d="M1343.39,232.39c58.37,24.87,107.31,61.49,141.53,105.92,24.54,31.86,41,66.56,48.83,103.14a221.09,221.09,0,0,1-3.51,108.85c-9.39,31-31.37,57.4-65.33,78.35-29.06,17.93-66.43,31.71-111.06,41-82.46,17.09-169.28,14.65-215,5.14-71.76-14.81-91.19-14-123.4-12.57-7,.3-14.87.64-23.94.84h0c-6,.1-12.23.53-18.8,1-24.74,1.7-52.79,3.63-89.91-9.93-28-9.46-54.08-22.63-73.31-37.1-18.11-13.62-28.11-26.9-27.45-36.39.23-15,9-20.84,23.65-30.52,20.39-13.52,51.21-33.95,86.19-96.4,14.79-22.86,20.53-53.23,26.59-85.38,15.29-81,32.62-172.74,204.47-174.57q7.72-.18,15.36-.17C1213.93,193.57,1282.88,206.62,1343.39,232.39ZM972.55,662.32c6.59-.45,12.81-.88,18.88-1h0c9.05-.2,16.94-.54,23.9-.84,32.33-1.41,51.85-2.25,123.82,12.61,45.6,9.47,132.13,11.9,214.36-5.15,122.91-25.47,163.07-78.31,175.12-118.14a219.38,219.38,0,0,0,3.48-108c-7.81-36.34-24.14-70.82-48.52-102.47-34-44.21-82.75-80.65-140.86-105.4-64.36-27.42-138.32-40.39-219.81-38.55-76.18.81-128.4,19.41-159.64,56.87-27.46,32.92-35.46,75.32-43.2,116.33-6.11,32.32-11.87,62.84-26.81,85.94-35.15,62.76-66.17,83.32-86.71,96.93-14.14,9.38-22.67,15-22.89,29.2-1.23,17.66,39.38,51.5,99.64,71.83a175.86,175.86,0,0,0,62.38,11C955.19,663.52,964.06,662.91,972.55,662.32Z" transform="translate(-623.81 -32.43)"/></g><g class="cls-33"><path class="cls-28" d="M1146.5,233.51h2.44c68.66,0,130.7,12.29,184.41,36.46,49.12,22.11,90.07,54.15,118.4,92.66,41.61,56.55,54.26,124.47,34.71,186.36-21.12,62.78-98.66,89.92-160,101.64-72.77,13.9-150.66,11.73-192.25,3.83-57.08-10.75-82.36-8.31-109.12-5.73-10,1-20.3,2-32.63,2.34l-2.91.07c-25.57.66-52,1.34-88.84-14.94-47.72-18.93-81.18-55.52-79.21-75.53.55-14.85,9.84-21.07,25.24-31.37,19.3-12.92,48.46-32.43,82.69-84C945.52,425,953,398.56,961,370.6c9.56-33.55,19.45-68.24,45.23-94.4,28.35-28.76,72.46-42.76,134.73-42.73C1142.79,233.47,1144.64,233.48,1146.5,233.51Zm-157,416.08,2.9-.08c12.28-.37,22.58-1.37,32.54-2.33,26.87-2.59,52.25-5,109.55,5.75,41.45,7.87,119.1,10,191.67-3.83,60.92-11.64,137.92-38.54,158.8-100.59a193.09,193.09,0,0,0,5.57-94.6c-6-32-19.46-62.38-40-90.37-28.18-38.3-68.91-70.17-117.8-92.17-53.51-24.08-115.32-36.3-183.79-36.32h-2.43c-64.78-.85-110.28,12.95-139.15,42.24C981.84,303.17,972,337.66,962.5,371c-8,28.1-15.58,54.65-31.8,75.2C896.33,498,867,517.59,847.62,530.57c-15,10-24,16.08-24.55,30.19-1.7,17.27,27.24,53.76,78.26,74,29.24,12.92,51.91,15.07,72.82,15.08C979.36,649.85,984.47,649.72,989.53,649.59Z" transform="translate(-623.81 -32.43)"/></g><g class="cls-34"><path class="cls-28" d="M1170.1,273.3c57.53,1.28,109.08,12.76,153.22,34.14,39.91,19.32,72.89,46.75,95.38,79.33,34,49.25,42.73,107.89,24,160.9-20.14,52.58-89.19,74.67-143.57,84-62.74,10.71-131.81,8.82-169.44,2.53-46.6-7.69-73.28-3.46-99.09.63-12.21,1.94-23.74,3.77-37.07,4.32h0c-25.1.85-47.48-5.37-74.81-20.79-38.77-19-60-58.65-57.63-77.57.91-14.94,11.06-21.72,27.87-32.95,18.08-12.06,45.39-30.3,78.14-70.8,17.38-17.63,27.26-40.64,36.81-62.9,11.18-26,22.74-53,46.43-72.3s57.66-28.91,103.2-28.89C1158.87,272.9,1164.41,273,1170.1,273.3ZM993.44,637.69c13.25-.55,24.74-2.37,36.91-4.3,25.92-4.12,52.72-8.37,99.55-.64,37.5,6.28,106.38,8.16,169-2.52,54-9.22,122.58-31.11,142.47-83.05,18.61-52.56,9.93-110.73-23.81-159.61-22.35-32.38-55.14-59.65-94.82-78.86-44-21.29-95.31-32.72-152.65-34-53.67-2.5-92.55,6.71-118.86,28.17-23.42,19.1-34.91,45.87-46,71.77-9.61,22.37-19.54,45.51-37.06,63.27-32.84,40.62-60.26,58.93-78.4,71.05-17,11.36-26.38,17.61-27.26,31.9-2.35,18.56,18.63,57.46,56.89,76.19,25.48,14.38,46.59,20.69,69.64,20.7C990.46,637.76,992,637.74,993.44,637.69Z" transform="translate(-623.81 -32.43)"/></g><g class="cls-35"><path class="cls-28" d="M1193.72,313.1c45.4,2.76,85.65,13.41,119.63,31.65,30.72,16.49,55.8,39.28,72.5,65.91,26.4,42.06,31.15,91.52,13,135.7-8.23,18.22-24.76,33.3-49.15,44.82-20.64,9.74-46.88,17-78,21.45-59.79,8.62-120.31,4.82-146.63,1.21-38-5.1-66,1.14-90.67,6.64-13.67,3-26.59,5.93-39.91,6.66h0c-21.12,1-38-11-57.87-26.73-12.44-8.13-23-22.16-29.67-39.52-5.54-14.36-8-29.73-6.39-40.07,1.38-15.47,12.52-22.73,32.72-35.9,17.52-11.42,41.52-27.06,71.38-56.26,18.5-14.49,30.39-32.19,41.88-49.32,23.31-34.72,45.46-67.72,118.83-67.69C1174.09,311.65,1183.5,312.12,1193.72,313.1ZM994.45,625.86c13.22-.72,26.08-3.59,39.7-6.62,24.78-5.53,52.87-11.79,91.12-6.66,26.26,3.6,86.63,7.39,146.28-1.22,31-4.46,57.1-11.65,77.63-21.34,24.1-11.38,40.43-26.25,48.52-44.16,18-43.78,13.25-92.81-12.93-134.52-16.59-26.44-41.5-49.08-72-65.47-33.81-18.15-73.89-28.74-119.12-31.5-43.7-4.2-75.2.51-99.14,14.83-21.24,12.71-33.68,31.24-46.85,50.85-11.55,17.21-23.49,35-42.1,49.57C975.63,458.86,951.58,474.54,934,486c-19.87,12.95-30.82,20.09-32.15,35-2.7,17.49,7.11,59.83,35.53,78.4,19,15,35.13,26.54,54.74,26.54C992.9,625.92,993.67,625.9,994.45,625.86Z" transform="translate(-623.81 -32.43)"/></g><g class="cls-36"><path class="cls-28" d="M1217.34,352.9c33.25,4.13,62.24,13.84,86.17,28.86,22,13.78,38.77,31.38,50,52.32,18.78,35.09,19.36,75.53,1.59,111-35.9,63.9-201.67,51.6-234.54,48.48-30.36-2.78-58.15,5.21-82.67,12.26-15.16,4.35-29.47,8.46-42.32,9.38h0c-16.52,1-27.42-14-38-28.58l-3-4.16c-17.2-17.64-17.88-62.55-14.42-81.54,2.07-17,16.79-25.94,43.5-42.1,15.57-9.42,34.94-21.15,58.68-38.45,18.32-10.48,31.58-21.86,44.4-32.87,24.57-21.08,45-38.67,89.37-38.65A238.93,238.93,0,0,1,1217.34,352.9ZM995.46,614c12.73-.91,27-5,42.08-9.34,24.62-7.08,52.52-15.09,83.1-12.3,20,1.9,72,5.7,123.59.1,58.57-6.37,95.53-22.51,109.83-48,17.59-35.09,17-75.15-1.58-109.91-11.11-20.76-27.79-38.22-49.58-51.89-23.78-14.93-52.62-24.58-85.73-28.7-74.39-13.17-98.8,7.79-129.71,34.32-12.87,11-26.17,22.45-44.53,32.95-23.72,17.3-43.12,29-58.71,38.48-26.41,16-41,24.78-43,41.29-3.43,18.84-2.81,63.27,14.13,80.6l.06.06,3.06,4.2c10,13.85,20.38,28.15,35.46,28.15C994.47,614.08,995,614.07,995.46,614Z" transform="translate(-623.81 -32.43)"/></g><g class="cls-37"><path class="cls-28" d="M1241,392.71c40.49,10,69.4,32.74,81.41,64,10.83,28.14,6.68,60.7-11.13,87.11-12.37,16.08-39.83,26.15-81.62,29.93-34.92,3.16-72.79,1.39-97.85.21-6.12-.28-11.4-.53-15.82-.67-23.2-.65-50.31,8.87-74.23,17.27-17,6-33,11.58-45.18,12.7h0c-14.63,1.19-20.56-20.1-24.07-38.82-6.59-17.45,3.77-67.12,7.17-83.42,3.52-22,27.74-33.73,80.79-59.46,6.1-2.95,12.57-6.09,19.48-9.47,9.63-3.64,18.18-7.08,26.44-10.39,29.08-11.68,50.11-20.12,76.31-20.11C1199,381.55,1217.39,384.85,1241,392.71ZM996.47,602.21c12.07-1.11,28-6.72,44.94-12.65,24-8.43,51.19-18,74.59-17.33,4.43.14,9.71.39,15.83.68,25,1.17,62.86,2.94,97.72-.21,41.5-3.75,68.72-13.69,80.89-29.52,17.61-26.11,21.72-58.32,11-86.16-11.89-30.89-40.55-53.38-80.75-63.34-61.07-20.35-87-10-134,8.91-8.27,3.32-16.82,6.75-26.42,10.38q-10.3,5-19.44,9.46c-52.73,25.56-76.79,37.23-80.24,58.73-3.39,16.27-13.72,65.78-7.2,82.93l0,.09c3.34,17.82,8.84,38.07,21.92,38.08C995.75,602.26,996.11,602.24,996.47,602.21Z" transform="translate(-623.81 -32.43)"/></g><g class="cls-38"><path class="cls-28" d="M1202.56,402c21.38,4.82,41.13,14.52,62.11,30.52,18.42,10.92,29.1,26.67,30.89,45.54,2.13,22.45-8.65,47.12-28.15,64.39-21.75,16.74-76.79,13.69-117,11.47-16.19-.89-30.17-1.67-39-1-16.24,1.23-40.47,11.29-63.89,21-19.72,8.19-38.34,15.92-49.95,17.31h0a6.93,6.93,0,0,1-6.55-3c-2.84-3.66-4.36-10.54-4.29-19.37.07-8.07,1.5-16.52,3.81-22.56,1.9-7.1,6.83-20.81,12-35.33,6.59-18.34,14.06-39.12,16.61-50,4.86-23.62,34.26-40.75,98.34-57.29,18.13-3.62,34.68-5.43,49.92-5.42A160.23,160.23,0,0,1,1202.56,402ZM997.48,590.39c11.49-1.38,30-9.09,49.71-17.25,23.49-9.76,47.78-19.84,64.17-21.08,8.9-.64,22.9.13,39.12,1,40,2.21,94.9,5.25,116.37-11.27,19.28-17.07,30-41.46,27.84-63.64-1.76-18.58-12.3-34.09-30.51-44.9-20.91-15.94-40.56-25.6-61.81-30.38-24-5.42-51.73-4.85-84.64,1.72-63.68,16.44-92.89,33.37-97.68,56.63-2.56,10.9-10,31.7-16.64,50.06-5.21,14.5-10.13,28.2-12,35.31-4.69,12.27-5.45,33.66.34,41.13a6.19,6.19,0,0,0,5,2.68C997,590.43,997.22,590.41,997.48,590.39Z" transform="translate(-623.81 -32.43)"/></g><g class="cls-39"><path class="cls-28" d="M1246.76,420.1c23.57,15.12,39.13,34.75,41.64,52.51,2.15,15.18-4.84,31.16-19.68,45-12.69,11.84-30,20.88-45.23,23.58-14.53,2.59-38.74-1.11-62.14-4.68-22.72-3.47-44.18-6.74-54.46-3.9-9.07,2.51-27.15,11.25-46.29,20.52-24.69,11.94-50.22,24.29-62,26.16a3.63,3.63,0,0,1-4-2.27c-2-3.94-1.71-12.8.84-22.58,2.82-10.82,7.64-20.3,13.21-26,15-15.38,44.9-67.57,50-87.26,3.14-12,11.36-22,24.44-29.51,16.64-9.62,40.86-15,71.95-16.13,1.92-.06,3.82-.1,5.73-.1C1191.53,395.43,1221.83,404.1,1246.76,420.1ZM998.49,578.56c11.66-1.85,37.14-14.18,61.78-26.1,19.18-9.28,37.29-18,46.42-20.56,10.44-2.88,32,.4,54.77,3.88,23.35,3.56,47.49,7.25,61.9,4.68,15.07-2.68,32.26-11.64,44.86-23.39,14.65-13.67,21.56-29.43,19.45-44.36-2.44-17.28-18.27-37.21-41.31-52-26.35-16.91-58.75-25.6-91.21-24.47-31,1.08-55.07,6.48-71.61,16-12.9,7.45-21,17.23-24.09,29.05-5.17,19.77-35.21,72.16-50.23,87.59-12.26,12.61-17.88,40.13-13.93,47.76A3,3,0,0,0,998,578.6,3.23,3.23,0,0,0,998.49,578.56Z" transform="translate(-623.81 -32.43)"/></g></g></g></g></svg>